<?xml version="1.0" encoding="utf-8"?><!-- Uploaded to: SVG Repo, www.svgrepo.com, Generator: SVG Repo Mixer Tools -->
<svg width="800px" height="800px" viewBox="0 -0.5 25 25" fill="none" xmlns="http://www.w3.org/2000/svg">
<path fill-rule="evenodd" clip-rule="evenodd" d="M9.76106 18.094C9.7639 18.4639 9.54326 18.7989 9.20233 18.9425C8.8614 19.086 8.46756 19.0096 8.20499 18.7491C7.94242 18.4885 7.86301 18.0953 8.00391 17.7532C8.1448 17.4112 8.47815 17.188 8.84806 17.188C9.35025 17.1863 9.75885 17.5918 9.76106 18.094V18.094Z" stroke="#000000" stroke-width="1.5" stroke-linecap="round" stroke-linejoin="round"/>
<path fill-rule="evenodd" clip-rule="evenodd" d="M15.239 18.094C15.2418 18.4639 15.0212 18.7989 14.6802 18.9425C14.3393 19.086 13.9455 19.0096 13.6829 18.7491C13.4203 18.4885 13.3409 18.0953 13.4818 17.7532C13.6227 17.4112 13.9561 17.188 14.326 17.188C14.8282 17.1863 15.2368 17.5918 15.239 18.094V18.094Z" stroke="#000000" stroke-width="1.5" stroke-linecap="round" stroke-linejoin="round"/>
<path d="M7.5 6.86901V6.11901C7.08579 6.11901 6.75 6.45479 6.75 6.86901H7.5ZM20.182 7.74901L20.9259 7.65341C20.9244 7.64153 20.9225 7.62969 20.9205 7.6179L20.182 7.74901ZM20.103 8.38901L19.4047 8.11538C19.4004 8.12632 19.3964 8.13736 19.3926 8.14849L20.103 8.38901ZM19.456 10.3L20.1516 10.5803C20.1569 10.5672 20.1619 10.5539 20.1664 10.5405L19.456 10.3ZM18.283 13.211L18.9528 13.5485C18.9622 13.5298 18.9708 13.5107 18.9786 13.4913L18.283 13.211ZM9.935 15.325V14.575L9.9319 14.575L9.935 15.325ZM8.21698 14.6215L7.68873 15.1539L7.68873 15.1539L8.21698 14.6215ZM7.5 12.909H6.74999L6.75001 12.9118L7.5 12.909ZM6.75 6.86901C6.75 7.28322 7.08579 7.61901 7.5 7.61901C7.91421 7.61901 8.25 7.28322 8.25 6.86901H6.75ZM7.5 4.60001H8.25004L8.24996 4.59259L7.5 4.60001ZM6.891 4.00001V4.75002L6.89475 4.75L6.891 4.00001ZM5.5 3.25001C5.08579 3.25001 4.75 3.58579 4.75 4.00001C4.75 4.41422 5.08579 4.75001 5.5 4.75001V3.25001ZM7.5 7.61901H17.773V6.11901H7.5V7.61901ZM17.773 7.61901C18.4551 7.61901 18.8841 7.59978 19.2042 7.67274C19.3405 7.70383 19.3844 7.73889 19.3941 7.74792C19.3985 7.75199 19.4041 7.75803 19.4114 7.77217C19.4193 7.78768 19.433 7.82042 19.4435 7.88012L20.9205 7.6179C20.8533 7.23945 20.6912 6.90513 20.4142 6.64823C20.1471 6.40038 19.8289 6.27669 19.5376 6.21027C19.0024 6.08824 18.3139 6.11901 17.773 6.11901V7.61901ZM19.4381 7.84461C19.4499 7.93624 19.4384 8.02937 19.4047 8.11538L20.8013 8.66263C20.9269 8.34202 20.9698 7.99494 20.9259 7.65341L19.4381 7.84461ZM19.3926 8.14849L18.7456 10.0595L20.1664 10.5405L20.8134 8.62952L19.3926 8.14849ZM18.7604 10.0197L17.5874 12.9307L18.9786 13.4913L20.1516 10.5803L18.7604 10.0197ZM17.6132 12.8735C17.3822 13.3321 17.2111 13.6679 17.0595 13.9264C16.9075 14.1857 16.8017 14.3197 16.7182 14.3969C16.6109 14.4962 16.4818 14.575 15.848 14.575V16.075C16.5592 16.075 17.1911 16.0029 17.7368 15.4981C17.9798 15.2733 18.1735 14.9921 18.3535 14.6851C18.5339 14.3774 18.7273 13.9959 18.9528 13.5485L17.6132 12.8735ZM15.848 14.575H9.935V16.075H15.848V14.575ZM9.9319 14.575C9.48754 14.5769 9.06067 14.402 8.74523 14.0891L7.68873 15.1539C8.28665 15.7471 9.09581 16.0785 9.9381 16.075L9.9319 14.575ZM8.74523 14.0891C8.42979 13.7761 8.25164 13.3506 8.24999 12.9062L6.75001 12.9118C6.75312 13.7541 7.09081 14.5606 7.68873 15.1539L8.74523 14.0891ZM8.25 12.909V6.86901H6.75V12.909H8.25ZM8.25 6.86901V4.60001H6.75V6.86901H8.25ZM8.24996 4.59259C8.24258 3.84632 7.63355 3.24629 6.88725 3.25002L6.89475 4.75C6.8155 4.75039 6.75082 4.68667 6.75004 4.60742L8.24996 4.59259ZM6.891 3.25001H5.5V4.75001H6.891V3.25001Z" fill="#000000"/>
</svg>